<svg width="30" height="30" xmlns="http://www.w3.org/2000/svg" shape-rendering="crispEdges"><path fill="#C771D3" d="M12 0h1v1h-1zm1 0h1v1h-1zm1 0h1v1h-1zm1 0h1v1h-1zm1 0h1v1h-1zm1 0h1v1h-1zm-5 1h1v1h-1zm1 0h1v1h-1zm1 0h1v1h-1zm1 0h1v1h-1zm1 0h1v1h-1zm1 0h1v1h-1zm-5 1h1v1h-1zm1 0h1v1h-1zm1 0h1v1h-1zm1 0h1v1h-1zm1 0h1v1h-1zm1 0h1v1h-1zm-5 1h1v1h-1zm1 0h1v1h-1zm1 0h1v1h-1z"/><path fill="#F5C0EF" d="M15 3h1v1h-1zm1 0h1v1h-1zm1 0h1v1h-1z"/><path fill="#C771D3" d="M18 3h1v1h-1zm1 0h1v1h-1zm1 0h1v1h-1zm-8 1h1v1h-1zm1 0h1v1h-1zm1 0h1v1h-1z"/><path fill="#F5C0EF" d="M15 4h1v1h-1zm1 0h1v1h-1zm1 0h1v1h-1z"/><path fill="#C771D3" d="M18 4h1v1h-1zm1 0h1v1h-1zm1 0h1v1h-1zm-8 1h1v1h-1zm1 0h1v1h-1zm1 0h1v1h-1z"/><path fill="#F5C0EF" d="M15 5h1v1h-1zm1 0h1v1h-1zm1 0h1v1h-1z"/><path fill="#C771D3" d="M18 5h1v1h-1zm1 0h1v1h-1zm1 0h1v1h-1zm-8 1h1v1h-1zm1 0h1v1h-1zm1 0h1v1h-1z"/><path fill="#FAE4F8" d="M15 6h1v1h-1zm1 0h1v1h-1zm1 0h1v1h-1z"/><path fill="#F5C0EF" d="M18 6h1v1h-1zm1 0h1v1h-1zm1 0h1v1h-1z"/><path fill="#C771D3" d="M21 6h1v1h-1zm1 0h1v1h-1zm1 0h1v1h-1zM12 7h1v1h-1zm1 0h1v1h-1zm1 0h1v1h-1z"/><path fill="#FAE4F8" d="M15 7h1v1h-1zm1 0h1v1h-1zm1 0h1v1h-1z"/><path fill="#F5C0EF" d="M18 7h1v1h-1zm1 0h1v1h-1zm1 0h1v1h-1z"/><path fill="#C771D3" d="M21 7h1v1h-1zm1 0h1v1h-1zm1 0h1v1h-1zM12 8h1v1h-1zm1 0h1v1h-1zm1 0h1v1h-1z"/><path fill="#FAE4F8" d="M15 8h1v1h-1zm1 0h1v1h-1zm1 0h1v1h-1z"/><path fill="#F5C0EF" d="M18 8h1v1h-1zm1 0h1v1h-1zm1 0h1v1h-1z"/><path fill="#C771D3" d="M21 8h1v1h-1zm1 0h1v1h-1zm1 0h1v1h-1zM0 9h1v1H0zm1 0h1v1H1zm1 0h1v1H2zm1 0h1v1H3zm1 0h1v1H4zm1 0h1v1H5zm1 0h1v1H6zm1 0h1v1H7zm1 0h1v1H8zm1 0h1v1H9zm1 0h1v1h-1zm1 0h1v1h-1z"/><path fill="#F5C0EF" d="M12 9h1v1h-1zm1 0h1v1h-1zm1 0h1v1h-1zm1 0h1v1h-1zm1 0h1v1h-1zm1 0h1v1h-1z"/><path fill="#FAE4F8" d="M18 9h1v1h-1zm1 0h1v1h-1zm1 0h1v1h-1z"/><path fill="#F5C0EF" d="M21 9h1v1h-1zm1 0h1v1h-1zm1 0h1v1h-1z"/><path fill="#C771D3" d="M24 9h1v1h-1zm1 0h1v1h-1zm1 0h1v1h-1zM0 10h1v1H0zm1 0h1v1H1zm1 0h1v1H2zm1 0h1v1H3zm1 0h1v1H4zm1 0h1v1H5zm1 0h1v1H6zm1 0h1v1H7zm1 0h1v1H8zm1 0h1v1H9zm1 0h1v1h-1zm1 0h1v1h-1z"/><path fill="#F5C0EF" d="M12 10h1v1h-1zm1 0h1v1h-1zm1 0h1v1h-1zm1 0h1v1h-1zm1 0h1v1h-1zm1 0h1v1h-1z"/><path fill="#FAE4F8" d="M18 10h1v1h-1zm1 0h1v1h-1zm1 0h1v1h-1z"/><path fill="#F5C0EF" d="M21 10h1v1h-1zm1 0h1v1h-1zm1 0h1v1h-1z"/><path fill="#C771D3" d="M24 10h1v1h-1zm1 0h1v1h-1zm1 0h1v1h-1zM0 11h1v1H0zm1 0h1v1H1zm1 0h1v1H2zm1 0h1v1H3zm1 0h1v1H4zm1 0h1v1H5zm1 0h1v1H6zm1 0h1v1H7zm1 0h1v1H8zm1 0h1v1H9zm1 0h1v1h-1zm1 0h1v1h-1z"/><path fill="#F5C0EF" d="M12 11h1v1h-1zm1 0h1v1h-1zm1 0h1v1h-1zm1 0h1v1h-1zm1 0h1v1h-1zm1 0h1v1h-1z"/><path fill="#FAE4F8" d="M18 11h1v1h-1zm1 0h1v1h-1zm1 0h1v1h-1z"/><path fill="#F5C0EF" d="M21 11h1v1h-1zm1 0h1v1h-1zm1 0h1v1h-1z"/><path fill="#C771D3" d="M24 11h1v1h-1zm1 0h1v1h-1zm1 0h1v1h-1zM0 12h1v1H0zm1 0h1v1H1zm1 0h1v1H2z"/><path fill="#F5C0EF" d="M3 12h1v1H3zm1 0h1v1H4zm1 0h1v1H5zm1 0h1v1H6zm1 0h1v1H7zm1 0h1v1H8zm1 0h1v1H9zm1 0h1v1h-1zm1 0h1v1h-1zm1 0h1v1h-1zm1 0h1v1h-1zm1 0h1v1h-1zm1 0h1v1h-1zm1 0h1v1h-1zm1 0h1v1h-1zm1 0h1v1h-1zm1 0h1v1h-1zm1 0h1v1h-1z"/><path fill="#FAE4F8" d="M21 12h1v1h-1zm1 0h1v1h-1zm1 0h1v1h-1z"/><path fill="#F5C0EF" d="M24 12h1v1h-1zm1 0h1v1h-1zm1 0h1v1h-1z"/><path fill="#C771D3" d="M27 12h1v1h-1zm1 0h1v1h-1zm1 0h1v1h-1zM0 13h1v1H0zm1 0h1v1H1zm1 0h1v1H2z"/><path fill="#F5C0EF" d="M3 13h1v1H3zm1 0h1v1H4zm1 0h1v1H5zm1 0h1v1H6zm1 0h1v1H7zm1 0h1v1H8zm1 0h1v1H9zm1 0h1v1h-1zm1 0h1v1h-1zm1 0h1v1h-1zm1 0h1v1h-1zm1 0h1v1h-1zm1 0h1v1h-1zm1 0h1v1h-1zm1 0h1v1h-1zm1 0h1v1h-1zm1 0h1v1h-1zm1 0h1v1h-1z"/><path fill="#FAE4F8" d="M21 13h1v1h-1zm1 0h1v1h-1zm1 0h1v1h-1z"/><path fill="#F5C0EF" d="M24 13h1v1h-1zm1 0h1v1h-1zm1 0h1v1h-1z"/><path fill="#C771D3" d="M27 13h1v1h-1zm1 0h1v1h-1zm1 0h1v1h-1zM0 14h1v1H0zm1 0h1v1H1zm1 0h1v1H2z"/><path fill="#F5C0EF" d="M3 14h1v1H3zm1 0h1v1H4zm1 0h1v1H5zm1 0h1v1H6zm1 0h1v1H7zm1 0h1v1H8zm1 0h1v1H9zm1 0h1v1h-1zm1 0h1v1h-1zm1 0h1v1h-1zm1 0h1v1h-1zm1 0h1v1h-1zm1 0h1v1h-1zm1 0h1v1h-1zm1 0h1v1h-1zm1 0h1v1h-1zm1 0h1v1h-1zm1 0h1v1h-1z"/><path fill="#FAE4F8" d="M21 14h1v1h-1zm1 0h1v1h-1zm1 0h1v1h-1z"/><path fill="#F5C0EF" d="M24 14h1v1h-1zm1 0h1v1h-1zm1 0h1v1h-1z"/><path fill="#C771D3" d="M27 14h1v1h-1zm1 0h1v1h-1zm1 0h1v1h-1zM0 15h1v1H0zm1 0h1v1H1zm1 0h1v1H2z"/><path fill="#E99BF4" d="M3 15h1v1H3zm1 0h1v1H4zm1 0h1v1H5zm1 0h1v1H6zm1 0h1v1H7zm1 0h1v1H8zm1 0h1v1H9zm1 0h1v1h-1zm1 0h1v1h-1z"/><path fill="#F5C0EF" d="M12 15h1v1h-1zm1 0h1v1h-1zm1 0h1v1h-1zm1 0h1v1h-1zm1 0h1v1h-1zm1 0h1v1h-1zm1 0h1v1h-1zm1 0h1v1h-1zm1 0h1v1h-1zm1 0h1v1h-1zm1 0h1v1h-1zm1 0h1v1h-1z"/><path fill="#E99BF4" d="M24 15h1v1h-1zm1 0h1v1h-1zm1 0h1v1h-1z"/><path fill="#C771D3" d="M27 15h1v1h-1zm1 0h1v1h-1zm1 0h1v1h-1zM0 16h1v1H0zm1 0h1v1H1zm1 0h1v1H2z"/><path fill="#E99BF4" d="M3 16h1v1H3zm1 0h1v1H4zm1 0h1v1H5zm1 0h1v1H6zm1 0h1v1H7zm1 0h1v1H8zm1 0h1v1H9zm1 0h1v1h-1zm1 0h1v1h-1z"/><path fill="#F5C0EF" d="M12 16h1v1h-1zm1 0h1v1h-1zm1 0h1v1h-1zm1 0h1v1h-1zm1 0h1v1h-1zm1 0h1v1h-1zm1 0h1v1h-1zm1 0h1v1h-1zm1 0h1v1h-1zm1 0h1v1h-1zm1 0h1v1h-1zm1 0h1v1h-1z"/><path fill="#E99BF4" d="M24 16h1v1h-1zm1 0h1v1h-1zm1 0h1v1h-1z"/><path fill="#C771D3" d="M27 16h1v1h-1zm1 0h1v1h-1zm1 0h1v1h-1zM0 17h1v1H0zm1 0h1v1H1zm1 0h1v1H2z"/><path fill="#E99BF4" d="M3 17h1v1H3zm1 0h1v1H4zm1 0h1v1H5zm1 0h1v1H6zm1 0h1v1H7zm1 0h1v1H8zm1 0h1v1H9zm1 0h1v1h-1zm1 0h1v1h-1z"/><path fill="#F5C0EF" d="M12 17h1v1h-1zm1 0h1v1h-1zm1 0h1v1h-1zm1 0h1v1h-1zm1 0h1v1h-1zm1 0h1v1h-1zm1 0h1v1h-1zm1 0h1v1h-1zm1 0h1v1h-1zm1 0h1v1h-1zm1 0h1v1h-1zm1 0h1v1h-1z"/><path fill="#E99BF4" d="M24 17h1v1h-1zm1 0h1v1h-1zm1 0h1v1h-1z"/><path fill="#C771D3" d="M27 17h1v1h-1zm1 0h1v1h-1zm1 0h1v1h-1zM0 18h1v1H0zm1 0h1v1H1zm1 0h1v1H2zm1 0h1v1H3zm1 0h1v1H4zm1 0h1v1H5zm1 0h1v1H6zm1 0h1v1H7zm1 0h1v1H8zm1 0h1v1H9zm1 0h1v1h-1zm1 0h1v1h-1z"/><path fill="#E99BF4" d="M12 18h1v1h-1zm1 0h1v1h-1zm1 0h1v1h-1z"/><path fill="#F5C0EF" d="M15 18h1v1h-1zm1 0h1v1h-1zm1 0h1v1h-1zm1 0h1v1h-1zm1 0h1v1h-1zm1 0h1v1h-1z"/><path fill="#E99BF4" d="M21 18h1v1h-1zm1 0h1v1h-1zm1 0h1v1h-1z"/><path fill="#C771D3" d="M24 18h1v1h-1zm1 0h1v1h-1zm1 0h1v1h-1zM0 19h1v1H0zm1 0h1v1H1zm1 0h1v1H2zm1 0h1v1H3zm1 0h1v1H4zm1 0h1v1H5zm1 0h1v1H6zm1 0h1v1H7zm1 0h1v1H8zm1 0h1v1H9zm1 0h1v1h-1zm1 0h1v1h-1z"/><path fill="#E99BF4" d="M12 19h1v1h-1zm1 0h1v1h-1zm1 0h1v1h-1z"/><path fill="#F5C0EF" d="M15 19h1v1h-1zm1 0h1v1h-1zm1 0h1v1h-1zm1 0h1v1h-1zm1 0h1v1h-1zm1 0h1v1h-1z"/><path fill="#E99BF4" d="M21 19h1v1h-1zm1 0h1v1h-1zm1 0h1v1h-1z"/><path fill="#C771D3" d="M24 19h1v1h-1zm1 0h1v1h-1zm1 0h1v1h-1zM0 20h1v1H0zm1 0h1v1H1zm1 0h1v1H2zm1 0h1v1H3zm1 0h1v1H4zm1 0h1v1H5zm1 0h1v1H6zm1 0h1v1H7zm1 0h1v1H8zm1 0h1v1H9zm1 0h1v1h-1zm1 0h1v1h-1z"/><path fill="#E99BF4" d="M12 20h1v1h-1zm1 0h1v1h-1zm1 0h1v1h-1z"/><path fill="#F5C0EF" d="M15 20h1v1h-1zm1 0h1v1h-1zm1 0h1v1h-1zm1 0h1v1h-1zm1 0h1v1h-1zm1 0h1v1h-1z"/><path fill="#E99BF4" d="M21 20h1v1h-1zm1 0h1v1h-1zm1 0h1v1h-1z"/><path fill="#C771D3" d="M24 20h1v1h-1zm1 0h1v1h-1zm1 0h1v1h-1zm-14 1h1v1h-1zm1 0h1v1h-1zm1 0h1v1h-1z"/><path fill="#F5C0EF" d="M15 21h1v1h-1zm1 0h1v1h-1zm1 0h1v1h-1z"/><path fill="#E99BF4" d="M18 21h1v1h-1zm1 0h1v1h-1zm1 0h1v1h-1z"/><path fill="#C771D3" d="M21 21h1v1h-1zm1 0h1v1h-1zm1 0h1v1h-1zm-11 1h1v1h-1zm1 0h1v1h-1zm1 0h1v1h-1z"/><path fill="#F5C0EF" d="M15 22h1v1h-1zm1 0h1v1h-1zm1 0h1v1h-1z"/><path fill="#E99BF4" d="M18 22h1v1h-1zm1 0h1v1h-1zm1 0h1v1h-1z"/><path fill="#C771D3" d="M21 22h1v1h-1zm1 0h1v1h-1zm1 0h1v1h-1zm-11 1h1v1h-1zm1 0h1v1h-1zm1 0h1v1h-1z"/><path fill="#F5C0EF" d="M15 23h1v1h-1zm1 0h1v1h-1zm1 0h1v1h-1z"/><path fill="#E99BF4" d="M18 23h1v1h-1zm1 0h1v1h-1zm1 0h1v1h-1z"/><path fill="#C771D3" d="M21 23h1v1h-1zm1 0h1v1h-1zm1 0h1v1h-1zm-11 1h1v1h-1zm1 0h1v1h-1zm1 0h1v1h-1z"/><path fill="#E99BF4" d="M15 24h1v1h-1zm1 0h1v1h-1zm1 0h1v1h-1z"/><path fill="#C771D3" d="M18 24h1v1h-1zm1 0h1v1h-1zm1 0h1v1h-1zm-8 1h1v1h-1zm1 0h1v1h-1zm1 0h1v1h-1z"/><path fill="#E99BF4" d="M15 25h1v1h-1zm1 0h1v1h-1zm1 0h1v1h-1z"/><path fill="#C771D3" d="M18 25h1v1h-1zm1 0h1v1h-1zm1 0h1v1h-1zm-8 1h1v1h-1zm1 0h1v1h-1zm1 0h1v1h-1z"/><path fill="#E99BF4" d="M15 26h1v1h-1zm1 0h1v1h-1zm1 0h1v1h-1z"/><path fill="#C771D3" d="M18 26h1v1h-1zm1 0h1v1h-1zm1 0h1v1h-1zm-8 1h1v1h-1zm1 0h1v1h-1zm1 0h1v1h-1zm1 0h1v1h-1zm1 0h1v1h-1zm1 0h1v1h-1zm-5 1h1v1h-1zm1 0h1v1h-1zm1 0h1v1h-1zm1 0h1v1h-1zm1 0h1v1h-1zm1 0h1v1h-1zm-5 1h1v1h-1zm1 0h1v1h-1zm1 0h1v1h-1zm1 0h1v1h-1zm1 0h1v1h-1zm1 0h1v1h-1z"/></svg>